<svg width="25" height="33" viewBox="0 0 25 33" fill="none" xmlns="http://www.w3.org/2000/svg">
<path d="M12.7251 2.25102C14.001 2.25102 15.2247 2.67526 16.127 3.4304C17.0292 4.18554 17.5361 5.20973 17.5361 6.27766V14.3309H7.91407V6.27766C7.91407 5.20973 8.42094 4.18554 9.32317 3.4304C10.2254 2.67526 11.4491 2.25102 12.7251 2.25102ZM19.9416 14.3309V6.27766C19.9416 4.67576 19.1813 3.13948 17.8279 2.00676C16.4745 0.874052 14.639 0.237701 12.7251 0.237701C10.8111 0.237701 8.97558 0.874052 7.62223 2.00676C6.26887 3.13948 5.50857 4.67576 5.50857 6.27766V14.3309C4.23261 14.3309 3.00892 14.7552 2.10668 15.5103C1.20444 16.2655 0.697571 17.2896 0.697571 18.3576V28.4242C0.697571 29.4921 1.20444 30.5163 2.10668 31.2714C3.00892 32.0266 4.23261 32.4508 5.50857 32.4508H19.9416C21.2175 32.4508 22.4412 32.0266 23.3434 31.2714C24.2457 30.5163 24.7526 29.4921 24.7526 28.4242V18.3576C24.7526 17.2896 24.2457 16.2655 23.3434 15.5103C22.4412 14.7552 21.2175 14.3309 19.9416 14.3309Z" fill="black"/>
</svg>
