<svg width="106" height="106" viewBox="0 0 106 106" fill="none" xmlns="http://www.w3.org/2000/svg">
<path d="M104.5 53C104.5 81.4427 81.4427 104.5 53 104.5C24.5573 104.5 1.5 81.4427 1.5 53C1.5 24.5573 24.5573 1.5 53 1.5C81.4427 1.5 104.5 24.5573 104.5 53Z" stroke="black" stroke-width="3"/>
<g clip-path="url(#clip0_60_3)">
<path d="M74.875 67.5C74.875 68.4614 74.5458 69.3834 73.9597 70.0633C73.3737 70.7431 72.5788 71.125 71.75 71.125H34.25C33.4212 71.125 32.6263 70.7431 32.0403 70.0633C31.4542 69.3834 31.125 68.4614 31.125 67.5V45.75C31.125 44.7886 31.4542 43.8666 32.0403 43.1867C32.6263 42.5069 33.4212 42.125 34.25 42.125H37.9125C40.3976 42.1234 42.7805 40.9773 44.5375 38.9386L47.1313 35.9371C47.7156 35.259 48.5078 34.8771 49.3344 34.875H56.6594C57.4881 34.8752 58.2828 35.2573 58.8688 35.9371L61.4562 38.9386C62.327 39.949 63.3608 40.7504 64.4986 41.2971C65.6364 41.8439 66.8559 42.1252 68.0875 42.125H71.75C72.5788 42.125 73.3737 42.5069 73.9597 43.1867C74.5458 43.8666 74.875 44.7886 74.875 45.75V67.5ZM34.25 38.5C32.5924 38.5 31.0027 39.2638 29.8306 40.6235C28.6585 41.9831 28 43.8272 28 45.75V67.5C28 69.4228 28.6585 71.2669 29.8306 72.6265C31.0027 73.9862 32.5924 74.75 34.25 74.75H71.75C73.4076 74.75 74.9973 73.9862 76.1694 72.6265C77.3415 71.2669 78 69.4228 78 67.5V45.75C78 43.8272 77.3415 41.9831 76.1694 40.6235C74.9973 39.2638 73.4076 38.5 71.75 38.5H68.0875C66.43 38.4996 64.8406 37.7355 63.6687 36.3758L61.0813 33.3742C59.9094 32.0145 58.32 31.2504 56.6625 31.25H49.3375C47.68 31.2504 46.0906 32.0145 44.9188 33.3742L42.3313 36.3758C41.1594 37.7355 39.57 38.4996 37.9125 38.5H34.25Z" fill="black"/>
<path d="M53 63.875C50.928 63.875 48.9409 62.9202 47.4757 61.2207C46.0106 59.5211 45.1875 57.216 45.1875 54.8125C45.1875 52.409 46.0106 50.1039 47.4757 48.4043C48.9409 46.7048 50.928 45.75 53 45.75C55.072 45.75 57.0591 46.7048 58.5243 48.4043C59.9894 50.1039 60.8125 52.409 60.8125 54.8125C60.8125 57.216 59.9894 59.5211 58.5243 61.2207C57.0591 62.9202 55.072 63.875 53 63.875ZM53 67.5C55.9008 67.5 58.6828 66.1633 60.734 63.7839C62.7852 61.4045 63.9375 58.1774 63.9375 54.8125C63.9375 51.4476 62.7852 48.2205 60.734 45.8411C58.6828 43.4617 55.9008 42.125 53 42.125C50.0992 42.125 47.3172 43.4617 45.266 45.8411C43.2148 48.2205 42.0625 51.4476 42.0625 54.8125C42.0625 58.1774 43.2148 61.4045 45.266 63.7839C47.3172 66.1633 50.0992 67.5 53 67.5ZM37.375 47.5625C37.375 48.0432 37.2104 48.5042 36.9174 48.8441C36.6243 49.184 36.2269 49.375 35.8125 49.375C35.3981 49.375 35.0007 49.184 34.7076 48.8441C34.4146 48.5042 34.25 48.0432 34.25 47.5625C34.25 47.0818 34.4146 46.6208 34.7076 46.2809C35.0007 45.941 35.3981 45.75 35.8125 45.75C36.2269 45.75 36.6243 45.941 36.9174 46.2809C37.2104 46.6208 37.375 47.0818 37.375 47.5625Z" fill="black"/>
</g>
<defs>
<clipPath id="clip0_60_3">
<rect width="50" height="58" fill="white" transform="translate(28 24)"/>
</clipPath>
</defs>
</svg>
