<svg width="297" height="301" viewBox="0 0 297 301" fill="none" xmlns="http://www.w3.org/2000/svg">
<path d="M171.11 232.49C170.67 232.49 170.32 232.34 170.06 232.04C169.8 231.72 169.6 231.33 169.46 230.87C169.34 230.39 169.26 229.92 169.22 229.46C169.18 228.98 169.16 228.59 169.16 228.29C169.16 227.21 169.2 226.12 169.28 225.02C169.38 223.92 169.48 222.83 169.58 221.75C169.24 221.89 168.91 222.05 168.59 222.23C168.29 222.41 168.01 222.64 167.75 222.92C167.71 222.96 167.66 223 167.6 223.04C167.56 223.08 167.5 223.1 167.42 223.1C167.28 223.1 167.14 223.03 167 222.89C166.88 222.75 166.82 222.61 166.82 222.47C166.82 222.29 166.94 222.11 167.18 221.93C167.42 221.73 167.71 221.55 168.05 221.39C168.41 221.21 168.74 221.06 169.04 220.94C169.36 220.82 169.58 220.74 169.7 220.7C169.72 220.54 169.76 220.24 169.82 219.8C169.9 219.34 169.99 218.83 170.09 218.27C170.19 217.69 170.3 217.14 170.42 216.62C170.56 216.08 170.7 215.64 170.84 215.3C170.98 214.94 171.12 214.76 171.26 214.76C171.4 214.76 171.54 214.81 171.68 214.91C171.82 215.01 171.89 215.13 171.89 215.27C171.89 215.33 171.84 215.58 171.74 216.02C171.64 216.46 171.51 216.98 171.35 217.58C171.21 218.16 171.08 218.71 170.96 219.23C170.86 219.75 170.79 220.11 170.75 220.31C171.63 220.05 172.47 219.84 173.27 219.68C174.09 219.52 174.95 219.44 175.85 219.44C175.93 219.44 176.08 219.44 176.3 219.44C176.52 219.44 176.73 219.45 176.93 219.47C177.15 219.49 177.26 219.53 177.26 219.59C177.06 219.67 176.84 219.73 176.6 219.77C176.38 219.81 176.16 219.84 175.94 219.86C174.98 219.94 174.07 220.12 173.21 220.4C172.37 220.68 171.51 220.99 170.63 221.33C170.49 222.47 170.37 223.63 170.27 224.81C170.17 225.97 170.12 227.12 170.12 228.26C170.12 228.48 170.13 228.78 170.15 229.16C170.17 229.52 170.21 229.89 170.27 230.27C170.33 230.63 170.43 230.94 170.57 231.2C170.71 231.46 170.91 231.59 171.17 231.59C171.51 231.59 171.86 231.4 172.22 231.02C172.58 230.62 172.94 230.14 173.3 229.58C173.66 229 173.99 228.42 174.29 227.84C174.59 227.26 174.85 226.77 175.07 226.37C175.31 225.97 175.47 225.76 175.55 225.74V225.83C175.55 226.13 175.45 226.55 175.25 227.09C175.05 227.63 174.78 228.21 174.44 228.83C174.12 229.43 173.76 230.01 173.36 230.57C172.98 231.13 172.59 231.59 172.19 231.95C171.81 232.31 171.45 232.49 171.11 232.49ZM177.869 221.21C177.729 221.21 177.599 221.18 177.479 221.12C177.359 221.04 177.299 220.93 177.299 220.79C177.299 220.63 177.369 220.39 177.509 220.07C177.649 219.73 177.829 219.39 178.049 219.05C178.269 218.71 178.499 218.42 178.739 218.18C178.999 217.94 179.229 217.82 179.429 217.82C179.589 217.82 179.669 217.92 179.669 218.12C179.669 218.36 179.539 218.55 179.279 218.69C179.119 218.79 178.979 218.98 178.859 219.26C178.759 219.54 178.669 219.83 178.589 220.13C178.529 220.43 178.469 220.67 178.409 220.85C178.349 221.09 178.169 221.21 177.869 221.21ZM177.269 232.7C176.809 232.7 176.469 232.51 176.249 232.13C176.029 231.73 175.889 231.28 175.829 230.78C175.769 230.26 175.739 229.84 175.739 229.52C175.739 229.32 175.759 228.95 175.799 228.41C175.859 227.87 175.929 227.27 176.009 226.61C176.109 225.93 176.219 225.27 176.339 224.63C176.479 223.99 176.639 223.46 176.819 223.04C176.999 222.62 177.189 222.41 177.389 222.41C177.549 222.41 177.689 222.46 177.809 222.56C177.929 222.66 177.989 222.79 177.989 222.95C177.989 223.19 177.919 223.57 177.779 224.09C177.639 224.61 177.469 225.2 177.269 225.86C177.089 226.52 176.919 227.19 176.759 227.87C176.619 228.53 176.549 229.13 176.549 229.67C176.549 229.81 176.559 230.05 176.579 230.39C176.619 230.73 176.689 231.05 176.789 231.35C176.889 231.63 177.049 231.77 177.269 231.77C177.569 231.77 177.899 231.55 178.259 231.11C178.619 230.67 178.979 230.13 179.339 229.49C179.719 228.83 180.069 228.18 180.389 227.54C180.709 226.88 180.979 226.33 181.199 225.89C181.419 225.45 181.569 225.23 181.649 225.23C181.749 225.23 181.809 225.27 181.829 225.35C181.869 225.41 181.889 225.48 181.889 225.56C181.889 225.82 181.779 226.24 181.559 226.82C181.339 227.38 181.049 228 180.689 228.68C180.329 229.34 179.939 229.98 179.519 230.6C179.099 231.2 178.689 231.7 178.289 232.1C177.889 232.5 177.549 232.7 177.269 232.7ZM181.545 233.42C181.365 233.42 181.245 233.36 181.185 233.24C181.125 233.12 181.095 232.99 181.095 232.85V232.79C181.095 231.71 181.175 230.7 181.335 229.76C181.495 228.82 181.645 227.87 181.785 226.91C181.945 225.93 182.025 224.86 182.025 223.7C182.025 223.38 182.005 223.01 181.965 222.59C181.945 222.15 181.875 221.72 181.755 221.3C181.655 220.88 181.495 220.55 181.275 220.31C181.195 220.23 181.155 220.13 181.155 220.01C181.155 219.83 181.235 219.67 181.395 219.53C181.555 219.39 181.725 219.31 181.905 219.29L182.175 219.41C182.415 219.63 182.585 220.02 182.685 220.58C182.785 221.12 182.845 221.67 182.865 222.23C182.885 222.79 182.895 223.23 182.895 223.55C182.895 223.99 182.885 224.43 182.865 224.87C182.845 225.31 182.815 225.76 182.775 226.22C182.875 225.96 183.015 225.63 183.195 225.23C183.375 224.81 183.585 224.4 183.825 224C184.085 223.58 184.355 223.23 184.635 222.95C184.935 222.67 185.255 222.53 185.595 222.53C185.935 222.53 186.195 222.72 186.375 223.1C186.555 223.46 186.675 223.91 186.735 224.45C186.815 224.99 186.865 225.51 186.885 226.01C186.905 226.49 186.915 226.85 186.915 227.09C187.035 226.79 187.225 226.36 187.485 225.8C187.765 225.24 188.085 224.63 188.445 223.97C188.825 223.31 189.225 222.68 189.645 222.08C190.065 221.48 190.475 220.99 190.875 220.61C191.275 220.21 191.645 220.01 191.985 220.01C192.265 220.01 192.435 220.16 192.495 220.46C192.575 220.76 192.615 221.01 192.615 221.21C192.615 222.01 192.535 222.82 192.375 223.64C192.235 224.46 192.085 225.29 191.925 226.13C191.785 226.97 191.715 227.82 191.715 228.68C191.715 228.78 191.715 229 191.715 229.34C191.735 229.68 191.775 230 191.835 230.3C191.915 230.58 192.045 230.72 192.225 230.72C192.525 230.72 192.835 230.57 193.155 230.27C193.475 229.97 193.765 229.63 194.025 229.25C194.305 228.85 194.535 228.5 194.715 228.2C194.915 227.88 195.045 227.72 195.105 227.72C195.185 227.8 195.225 227.9 195.225 228.02C195.225 228.22 195.115 228.52 194.895 228.92C194.675 229.32 194.395 229.73 194.055 230.15C193.735 230.57 193.405 230.93 193.065 231.23C192.725 231.51 192.445 231.65 192.225 231.65C191.845 231.65 191.545 231.46 191.325 231.08C191.125 230.7 190.985 230.27 190.905 229.79C190.845 229.31 190.815 228.94 190.815 228.68C190.815 227.9 190.865 227.13 190.965 226.37C191.065 225.59 191.185 224.82 191.325 224.06C191.405 223.66 191.505 223.24 191.625 222.8C191.765 222.36 191.835 221.94 191.835 221.54C191.835 221.42 191.795 221.3 191.715 221.18L191.655 221.15C191.535 221.15 191.375 221.27 191.175 221.51C190.975 221.73 190.785 221.97 190.605 222.23C190.445 222.49 190.325 222.67 190.245 222.77C189.485 223.85 188.875 224.97 188.415 226.13C187.955 227.27 187.435 228.43 186.855 229.61C186.815 229.69 186.755 229.77 186.675 229.85C186.615 229.93 186.535 229.97 186.435 229.97C186.235 229.97 186.095 229.78 186.015 229.4C185.955 229 185.925 228.55 185.925 228.05C185.925 227.59 185.935 227.16 185.955 226.76C185.995 226.34 186.015 226.05 186.015 225.89C186.015 225.81 186.005 225.64 185.985 225.38C185.985 225.12 185.965 224.84 185.925 224.54C185.905 224.24 185.865 223.98 185.805 223.76C185.765 223.54 185.695 223.43 185.595 223.43C185.395 223.43 185.235 223.51 185.115 223.67C185.015 223.83 184.915 223.99 184.815 224.15C184.235 225.13 183.765 226.14 183.405 227.18C183.085 228.14 182.855 229.13 182.715 230.15C182.575 231.15 182.335 232.12 181.995 233.06C181.935 233.3 181.785 233.42 181.545 233.42ZM198.019 233C197.479 233 197.059 232.76 196.759 232.28C196.479 231.8 196.289 231.22 196.189 230.54C196.089 229.84 196.039 229.19 196.039 228.59C196.039 228.31 196.039 228.06 196.039 227.84C196.059 227.6 196.079 227.4 196.099 227.24H196.009C195.769 227.24 195.649 227.15 195.649 226.97C195.689 226.87 195.759 226.79 195.859 226.73C195.979 226.65 196.089 226.6 196.189 226.58C196.289 225.7 196.479 224.8 196.759 223.88C197.039 222.96 197.419 222.13 197.899 221.39V221.21C197.899 221.01 198.019 220.89 198.259 220.85C198.359 220.75 198.459 220.64 198.559 220.52C198.679 220.38 198.809 220.31 198.949 220.31C199.109 220.31 199.229 220.38 199.309 220.52C199.409 220.64 199.419 220.77 199.339 220.91C199.719 220.99 200.059 221.15 200.359 221.39C200.679 221.61 200.839 221.94 200.839 222.38C200.839 222.96 200.619 223.56 200.179 224.18C199.759 224.78 199.249 225.33 198.649 225.83C198.069 226.31 197.539 226.67 197.059 226.91C196.999 227.39 196.959 227.88 196.939 228.38C196.939 228.86 196.939 229.34 196.939 229.82C196.939 230.06 196.949 230.36 196.969 230.72C197.009 231.08 197.099 231.4 197.239 231.68C197.399 231.96 197.659 232.1 198.019 232.1C198.399 232.1 198.769 231.93 199.129 231.59C199.509 231.25 199.869 230.82 200.209 230.3C200.569 229.76 200.899 229.2 201.199 228.62C201.499 228.04 201.759 227.49 201.979 226.97C202.199 226.45 202.359 226.05 202.459 225.77C202.499 225.67 202.549 225.58 202.609 225.5C202.669 225.4 202.759 225.35 202.879 225.35C203.039 225.35 203.119 225.45 203.119 225.65C203.119 225.97 203.009 226.43 202.789 227.03C202.569 227.61 202.269 228.24 201.889 228.92C201.529 229.6 201.119 230.25 200.659 230.87C200.219 231.49 199.769 232 199.309 232.4C198.849 232.8 198.419 233 198.019 233ZM197.209 225.98C197.589 225.74 197.969 225.44 198.349 225.08C198.729 224.72 199.049 224.31 199.309 223.85C199.569 223.39 199.699 222.93 199.699 222.47C199.699 222.23 199.579 222.06 199.339 221.96C199.099 221.84 198.889 221.77 198.709 221.75C198.329 222.37 198.009 223.05 197.749 223.79C197.509 224.53 197.329 225.26 197.209 225.98Z" fill="black"/>
<path d="M16.56 207H14.19V197.85H3.87V207H1.5V186H3.87V195.81H14.19V186H16.56V207ZM39.7969 196.5C39.7969 198.02 39.5269 199.44 38.9869 200.76C38.4669 202.06 37.7369 203.2 36.7969 204.18C35.8569 205.16 34.7669 205.93 33.5269 206.49C32.2869 207.03 30.9569 207.3 29.5369 207.3C28.0969 207.3 26.7569 207.02 25.5169 206.46C24.2769 205.9 23.1869 205.13 22.2469 204.15C21.3069 203.15 20.5669 202 20.0269 200.7C19.5069 199.4 19.2469 198 19.2469 196.5C19.2469 195.02 19.5169 193.63 20.0569 192.33C20.5969 191.01 21.3469 189.86 22.3069 188.88C23.2669 187.88 24.3669 187.1 25.6069 186.54C26.8469 185.98 28.1569 185.7 29.5369 185.7C30.9569 185.7 32.2869 185.99 33.5269 186.57C34.7669 187.13 35.8569 187.91 36.7969 188.91C37.7369 189.91 38.4669 191.06 38.9869 192.36C39.5269 193.66 39.7969 195.04 39.7969 196.5ZM37.3669 196.5C37.3669 195.34 37.1569 194.25 36.7369 193.23C36.3369 192.19 35.7769 191.28 35.0569 190.5C34.3569 189.7 33.5269 189.08 32.5669 188.64C31.6269 188.18 30.6169 187.95 29.5369 187.95C28.4369 187.95 27.4069 188.18 26.4469 188.64C25.5069 189.08 24.6769 189.7 23.9569 190.5C23.2569 191.28 22.6969 192.19 22.2769 193.23C21.8769 194.25 21.6769 195.34 21.6769 196.5C21.6769 197.66 21.8769 198.76 22.2769 199.8C22.6969 200.84 23.2569 201.76 23.9569 202.56C24.6769 203.34 25.5069 203.96 26.4469 204.42C27.4069 204.86 28.4369 205.08 29.5369 205.08C30.6369 205.08 31.6569 204.86 32.5969 204.42C33.5369 203.96 34.3669 203.34 35.0869 202.56C35.8069 201.76 36.3669 200.85 36.7669 199.83C37.1669 198.79 37.3669 197.68 37.3669 196.5ZM42.4863 207V186H47.4363L53.3163 200.91L59.1963 186H64.1463V207H61.7463V188.7H60.7263L54.6363 203.73H52.0263L45.9063 188.7H44.8563V207H42.4863ZM78.4943 207H67.1543V186H78.4943V188.16H69.5243V195.69H76.7843V197.73H69.5243V204.84H78.4943V207ZM110.59 186L104.05 207H101.11L95.6803 192.69L90.3103 207H87.3703L80.7703 186H83.2903L88.8703 203.94L94.4203 189.57H96.9703L102.52 203.97L108.04 186H110.59ZM132.053 196.5C132.053 198.02 131.783 199.44 131.243 200.76C130.723 202.06 129.993 203.2 129.053 204.18C128.113 205.16 127.023 205.93 125.783 206.49C124.543 207.03 123.213 207.3 121.793 207.3C120.353 207.3 119.013 207.02 117.773 206.46C116.533 205.9 115.443 205.13 114.503 204.15C113.563 203.15 112.823 202 112.283 200.7C111.763 199.4 111.503 198 111.503 196.5C111.503 195.02 111.773 193.63 112.313 192.33C112.853 191.01 113.603 189.86 114.563 188.88C115.523 187.88 116.623 187.1 117.863 186.54C119.103 185.98 120.413 185.7 121.793 185.7C123.213 185.7 124.543 185.99 125.783 186.57C127.023 187.13 128.113 187.91 129.053 188.91C129.993 189.91 130.723 191.06 131.243 192.36C131.783 193.66 132.053 195.04 132.053 196.5ZM129.623 196.5C129.623 195.34 129.413 194.25 128.993 193.23C128.593 192.19 128.033 191.28 127.313 190.5C126.613 189.7 125.783 189.08 124.823 188.64C123.883 188.18 122.873 187.95 121.793 187.95C120.693 187.95 119.663 188.18 118.703 188.64C117.763 189.08 116.933 189.7 116.213 190.5C115.513 191.28 114.953 192.19 114.533 193.23C114.133 194.25 113.933 195.34 113.933 196.5C113.933 197.66 114.133 198.76 114.533 199.8C114.953 200.84 115.513 201.76 116.213 202.56C116.933 203.34 117.763 203.96 118.703 204.42C119.663 204.86 120.693 205.08 121.793 205.08C122.893 205.08 123.913 204.86 124.853 204.42C125.793 203.96 126.623 203.34 127.343 202.56C128.063 201.76 128.623 200.85 129.023 199.83C129.423 198.79 129.623 197.68 129.623 196.5ZM148.692 207H145.872L140.472 198.15H137.112V207H134.742L134.772 186H142.782C143.762 186 144.642 186.29 145.422 186.87C146.222 187.43 146.862 188.17 147.342 189.09C147.822 190.01 148.062 191.01 148.062 192.09C148.062 193.01 147.842 193.9 147.402 194.76C146.982 195.62 146.412 196.35 145.692 196.95C144.972 197.55 144.152 197.91 143.232 198.03L148.692 207ZM145.662 192.09C145.662 191.49 145.532 190.91 145.272 190.35C145.012 189.77 144.662 189.3 144.222 188.94C143.782 188.56 143.272 188.37 142.692 188.37H137.112V195.72H142.632C143.192 195.72 143.692 195.53 144.132 195.15C144.592 194.77 144.962 194.3 145.242 193.74C145.522 193.18 145.662 192.63 145.662 192.09ZM165.123 207H162.333L154.833 198.33L153.753 198.9V207H151.383V185.97H153.753V195.81L162.183 185.94H165.153L156.513 196.35L165.123 207Z" fill="black"/>
<path d="M82 16.8121C82.1999 16.4628 82.3302 15.8884 82.6101 15.7976C87.7915 14.1152 92.9906 12.49 98.1868 10.8553C98.4461 10.7737 98.7093 10.6964 98.9761 10.6501C102.386 10.0587 103.493 11.0084 103.474 14.5436C103.47 15.1644 103.354 15.7854 103.279 16.4049C103.016 18.5727 103.502 20.5068 105.391 21.6809C107.43 22.9484 109.695 23.0781 111.817 21.9325C113.713 20.9087 114.148 18.9233 113.607 17.0414C112.926 14.6725 111.858 12.4075 110.825 10.1611C109.836 8.00954 110.054 6.81891 112.159 5.99566C117.351 3.96541 122.593 2.06879 128.132 0C128.681 1.76779 129.157 3.39491 129.689 5.00226C130.909 8.68237 131.964 12.4375 133.453 16.0011C134.697 18.9795 135.972 19.0935 138.437 17.0315C139.33 16.2844 140.145 15.434 141.066 14.7276C143.27 13.0374 145.758 13.0677 147.836 14.7359C149.945 16.4288 150.835 19.6925 149.897 22.2972C148.996 24.8015 146.82 26.3416 144.096 25.8485C138.956 24.918 137.537 27.5346 139.259 32.2864C140.67 36.1822 142.183 40.0392 143.7 44.0418C144.023 44.1768 144.63 44.4302 145.236 44.6837C144.602 45.2033 143.968 45.723 143.088 46.3917C142.349 46.768 141.87 47.0409 141.36 47.2153C137.379 48.5752 133.374 49.8655 129.412 51.2809C126.829 52.2035 126.727 52.7982 128.311 55.1607C129.423 56.8196 130.643 58.4369 131.506 60.2288C132.697 62.703 132.125 64.9461 129.96 66.4822C127.558 68.1862 124.86 69.4322 121.94 68.1371C119.183 66.9144 118.828 64.1529 118.646 61.4418C118.642 61.3723 118.64 61.3027 118.636 61.2333C118.359 56.5683 117.593 56.0088 113.168 57.2426C112.775 57.3521 112.374 57.4449 111.998 57.5999C108.353 59.104 104.713 60.6197 101.071 62.1321C100.397 61.9787 99.7224 61.8252 98.775 61.5689C97.244 58.6413 95.9494 55.8328 94.7406 52.9861C93.903 51.0135 93.0555 49.0284 92.4414 46.9769C91.4998 43.8314 92.9209 41.8215 96.0893 41.5263C97.6401 41.3818 99.2262 41.3882 100.729 41.0297C101.859 40.7601 103.151 40.2682 103.893 39.4311C105.201 37.9572 104.27 33.7499 102.505 31.9253C101.306 30.6851 99.3117 30.6957 97.2506 32.0572C95.7118 33.0738 94.2808 34.2644 92.7255 35.2513C90.8309 36.4534 89.5203 36.2635 88.4851 34.2396C87.0777 31.4879 85.9389 28.5774 84.8655 25.6651C83.7944 22.7589 82.946 19.7666 82 16.8121Z" fill="#52B59F"/>
<path d="M81.9089 16.4582C83.0049 19.3795 83.8532 22.3718 84.9244 25.2779C85.9978 28.1902 87.1365 31.1008 88.5439 33.8524C89.5791 35.8763 90.8897 36.0662 92.7843 34.8641C94.3396 33.8772 95.7706 32.6867 97.3094 31.6701C99.3705 30.3085 101.365 30.298 102.564 31.5381C104.329 33.3627 105.26 37.5701 103.952 39.044C103.209 39.8811 101.918 40.3729 100.788 40.6425C99.285 41.001 97.6989 40.9947 96.1481 41.1392C92.9798 41.4344 91.5586 43.4443 92.5002 46.5898C93.1143 48.6413 93.9618 50.6263 94.7995 52.599C96.0082 55.4457 97.3029 58.2542 98.6879 61.1599C98.5235 61.7997 98.3594 62.6884 97.9207 62.8662C93.5741 64.6279 89.2609 66.5535 84.7809 67.8709C80.2016 69.2175 78.1843 67.3369 78.4028 62.4919C78.5102 60.1084 78.3287 58.0306 75.7804 57.0099C73.6244 56.1463 70.9479 56.7292 69.212 58.542C67.4083 60.4256 67.3307 62.7757 68.8022 64.9591C69.7912 66.4268 70.7057 67.9881 71.381 69.6255C72.0717 71.3002 71.337 72.6466 69.7204 73.3335C65.7089 75.0381 61.7099 76.7859 57.6347 78.3175C54.4283 79.5226 53.3524 78.9872 52.2148 75.6663C50.7776 71.471 49.48 67.2207 48.2706 62.9501C47.5309 60.3383 49.0302 58.2299 51.6817 57.904C52.6181 57.7889 53.5822 57.8685 54.5312 57.9123C57.8441 58.0652 59.4548 56.6855 59.8168 53.3516C60.0767 50.9588 58.7249 48.4192 56.56 47.3387C54.5114 46.3161 52.7425 46.8053 51.2332 48.4895C51.1426 48.5907 51.0075 48.6496 50.9156 48.7499C47.0844 52.928 44.2456 51.4009 42.4646 46.9346C40.7749 42.6975 39.5638 38.2608 38.1203 33.9195C37.6175 32.4073 38.8003 32.313 39.6372 32.0376C43.2544 30.8477 46.9085 29.7728 50.5074 28.5291C51.7773 28.0902 52.9502 27.329 54.1278 26.6438C55.738 25.7069 56.0363 24.4184 54.9924 22.8098C53.9397 21.1876 52.8194 19.5992 51.9093 17.8948C49.8354 14.0105 51.0816 11.3201 55.304 10.3284C60.3002 9.15508 62.7642 11.1184 62.8608 16.3346C62.8852 17.6551 62.8715 18.9846 63.0215 20.2925C63.188 21.744 64.073 22.6753 65.5284 22.3719C67.9743 21.8621 70.4438 21.3215 72.7801 20.4478C75.8358 19.3051 78.7716 17.8259 81.9089 16.4582Z" fill="#3A7DC9"/>
<path d="M98 93.3767C99.1041 92.3071 100.036 90.7416 101.346 90.2635C104.877 88.9743 104.796 85.7126 102.453 83.3683C101.871 82.7863 101.247 82.2497 100.567 81.574C101.031 81.3906 101.575 81.357 102.106 81.2547C104.307 80.8309 105.11 79.7484 104.44 77.5642C103.671 75.0552 102.623 72.6341 101.66 70.1896C101.052 68.6458 100.337 67.1458 99.7453 65.5958C99.0659 63.8151 99.2863 62.1831 100.814 60.7403C104.524 59.118 108.165 57.6023 111.81 56.0982C112.185 55.9431 112.587 55.8504 112.979 55.7409C117.404 54.5071 118.17 55.0666 118.447 59.7315C118.452 59.801 118.453 59.8706 118.458 59.94C118.639 62.6512 118.994 65.4127 121.751 66.6353C124.671 67.9305 127.369 66.6845 129.771 64.9805C131.937 63.4444 132.509 61.2013 131.317 58.7271C130.455 56.9352 129.235 55.3179 128.123 53.659C126.539 51.2965 126.641 50.7018 129.224 49.7792C133.186 48.3638 137.19 47.0734 141.171 45.7136C141.682 45.5391 142.161 45.2663 142.802 45C143.862 46.1945 145.048 47.306 145.632 48.6852C147.194 52.3729 148.599 56.1397 149.872 59.9434C150.937 63.1286 149.578 64.8741 146.249 64.9143C145.575 64.9224 144.9 64.8082 144.224 64.7614C141.726 64.588 139.223 66.2841 138.533 68.6136C137.762 71.2155 138.811 74.0562 141.08 75.5145C143.165 76.854 145.56 76.4933 147.564 74.5359C147.76 74.344 147.946 74.1409 148.138 73.9439C151.531 70.4592 153.418 70.675 155.281 75.3058C157.291 80.2999 158.831 85.4923 160.683 90.9126C157.987 91.6944 155.503 92.3161 153.085 93.142C150.268 94.1044 147.386 95.0001 144.757 96.3749C141.896 97.8709 141.826 98.9876 143.824 101.482C145.78 103.925 146.952 106.533 145.849 109.74C144.935 112.396 142.537 114.139 140.148 113.904C137.291 113.623 135.125 111.722 134.713 108.864C134.487 107.3 134.636 105.681 134.569 104.089C134.475 101.846 133.821 101.12 131.651 101.461C129.867 101.741 128.154 102.488 126.172 103.009C121.101 98.8822 116.286 94.75 111.401 90.7055C110.989 90.3648 110.114 90.6121 109.316 90.5569C107.172 88.22 105.851 88.229 103.783 90.6553C102.241 92.4653 100.497 93.7385 98 93.3767Z" fill="#F8E506"/>
<path d="M122.412 98.4144C122.805 98.9517 123.691 99.2267 122.886 100.235C120.049 103.787 117.338 107.445 114.496 110.993C113.734 111.944 112.747 112.757 111.738 113.439C109.76 114.777 108.356 114.425 107.137 112.362C106.579 111.416 106.17 110.376 105.699 109.375C104.353 106.513 101.807 105.617 98.8968 106.986C95.9057 108.393 94.8153 111.094 96.0744 113.999C97.0748 116.308 98.952 117.606 101.101 118.625C104.83 120.392 105.088 121.214 102.582 124.613C99.8507 128.317 96.9614 131.9 94.111 135.51C92.975 136.949 91.1107 136.828 89.6707 135.437C86.4635 132.341 83.2613 129.235 79.9456 126.263C77.085 123.7 75.707 124.182 74.4182 127.929C74.1031 128.846 73.7927 129.77 73.3878 130.646C72.1852 133.247 70.1581 134.464 67.7174 134.114C64.8424 133.702 62.3139 131.259 61.8807 128.474C61.4823 125.912 62.5578 123.89 65.0479 122.52C65.1077 122.487 65.1667 122.453 65.2269 122.42C70.4304 119.642 70.568 117.954 65.9034 114.187C63.0248 111.863 60.153 109.53 57.2736 107.207C55.5635 105.827 55.6192 104.344 57.1786 102.633C59.9467 99.5953 62.6427 96.4852 65.273 93.3218C66.0802 92.351 66.5744 91.1071 67.3345 89.7733C65.6728 88.9843 64.2524 88.3629 62.8786 87.6474C58.9252 85.5885 57.4554 82.7581 58.5782 79.3293C59.3967 76.8296 61.0537 75.1757 63.6283 74.7192C66.0171 74.2957 67.8907 75.4202 69.2999 77.262C70.2116 78.4536 70.9031 79.8341 71.6061 81.1778C72.2162 82.344 73.1197 82.7088 74.0879 81.9463C75.6313 80.7308 77.1585 79.4342 78.4414 77.9448C80.3697 75.7063 81.9843 73.1844 83.9103 70.9436C86.089 68.409 87.4593 68.4403 89.9949 70.532C92.1605 72.3184 94.3996 74.0114 96.8086 75.9168C97.616 76.6453 98.2409 77.1819 98.8225 77.7639C101.165 80.1082 101.246 83.3699 97.7151 84.659C96.4053 85.1372 95.4736 86.7026 94.2591 87.8744C92.6065 91.4652 93.4168 94.1582 96.4556 95.6434C99.708 97.2328 102.139 96.4371 103.785 92.8954C104.761 90.7937 105.289 88.4728 106.157 86.2534C106.849 86.6316 107.439 86.9605 107.949 87.3897C112.023 90.8173 116.059 94.2921 120.17 97.6724C120.742 98.1432 121.656 98.1779 122.412 98.4144Z" fill="#EF3321"/>
</svg>
