<svg width="149" height="189" viewBox="0 0 149 189" fill="none" xmlns="http://www.w3.org/2000/svg">
<path d="M53.7945 22.8243C54.0356 22.368 54.1927 21.6178 54.5302 21.4991C60.7784 19.3016 67.0479 17.1787 73.3139 15.0435C73.6266 14.9369 73.944 14.8358 74.2658 14.7754C78.3781 14.0029 79.7125 15.2434 79.6893 19.8611C79.6852 20.6721 79.5449 21.4832 79.4544 22.2925C79.1378 25.124 79.7237 27.6504 82.0013 29.184C84.46 30.8396 87.1916 31.0091 89.7503 29.5127C92.0369 28.1754 92.5616 25.582 91.9089 23.1238C91.0873 20.0295 89.7994 17.0709 88.5541 14.1367C87.3613 11.3262 87.6238 9.77101 90.1627 8.69567C96.4239 6.04372 102.745 3.56631 109.425 0.864014C110.086 3.17314 110.66 5.29851 111.302 7.39806C112.773 12.2051 114.045 17.1101 115.841 21.7649C117.341 25.6554 118.879 25.8043 121.851 23.111C122.928 22.1351 123.91 21.0242 125.021 20.1016C127.679 17.8937 130.679 17.9333 133.185 20.1124C135.729 22.3236 136.801 26.5868 135.671 29.989C134.584 33.2602 131.96 35.2719 128.675 34.6279C122.477 33.4124 120.766 36.8303 122.842 43.0372C124.544 48.126 126.369 53.164 128.198 58.3923C128.587 58.5686 129.319 58.8997 130.05 59.2307C129.285 59.9095 128.521 60.5883 127.46 61.4618C126.568 61.9534 125.991 62.3097 125.375 62.5376C120.575 64.3139 115.746 65.9994 110.968 67.8481C107.853 69.0532 107.731 69.8301 109.64 72.9161C110.982 75.0829 112.452 77.1954 113.493 79.5361C114.929 82.7679 114.24 85.698 111.629 87.7044C108.732 89.9302 105.478 91.5577 101.957 89.866C98.6326 88.2689 98.2045 84.6618 97.9858 81.1205C97.9802 81.0298 97.9781 80.9389 97.9731 80.8481C97.6389 74.7547 96.7153 74.0238 91.379 75.6355C90.9056 75.7784 90.4219 75.8997 89.9688 76.1022C85.5735 78.0668 81.1837 80.0467 76.7923 82.0222C75.979 81.8218 75.1657 81.6213 74.0232 81.2866C72.177 77.4624 70.6159 73.794 69.1582 70.0755C68.1482 67.4988 67.1261 64.9059 66.3856 62.2262C65.2501 58.1175 66.9639 55.4922 70.7845 55.1065C72.6546 54.9178 74.5673 54.9261 76.3794 54.4578C77.7423 54.1056 79.2997 53.4632 80.1952 52.3697C81.7719 50.4445 80.6497 44.9488 78.5217 42.5654C77.0754 40.9455 74.6704 40.9593 72.185 42.7378C70.3294 44.0657 68.6037 45.6208 66.7282 46.9099C64.4435 48.4802 62.8631 48.2321 61.6148 45.5884C59.9176 41.9941 58.5444 38.1923 57.25 34.3883C55.9583 30.5922 54.9353 26.6835 53.7945 22.8243Z" fill="#52B59F"/>
<path d="M107.132 138.697C107.606 139.399 108.675 139.758 107.703 141.076C104.282 145.715 101.014 150.494 97.5865 155.128C96.6676 156.37 95.4773 157.432 94.2606 158.323C91.8747 160.07 90.1815 159.611 88.7126 156.916C88.0387 155.68 87.5463 154.321 86.9786 153.014C85.3545 149.276 82.2842 148.106 78.7754 149.894C75.1684 151.732 73.8535 155.259 75.3718 159.054C76.5783 162.07 78.8419 163.766 81.4337 165.096C85.9295 167.404 86.2409 168.478 83.2188 172.919C79.9257 177.757 76.4415 182.437 73.0043 187.153C71.6344 189.032 69.3863 188.873 67.6498 187.057C63.7823 183.013 59.9208 178.955 55.9224 175.074C52.4729 171.725 50.8112 172.356 49.2571 177.25C48.8771 178.447 48.5028 179.655 48.0145 180.799C46.5644 184.197 44.1198 185.785 41.1767 185.329C37.7097 184.791 34.6606 181.599 34.1383 177.961C33.6578 174.615 34.9548 171.974 37.9575 170.184C38.0297 170.141 38.1008 170.096 38.1735 170.054C44.4482 166.425 44.6141 164.22 38.9892 159.3C35.518 156.264 32.055 153.216 28.5827 150.182C26.5206 148.38 26.5876 146.443 28.4682 144.207C31.8062 140.24 35.0572 136.177 38.2291 132.045C39.2024 130.777 39.7984 129.152 40.7149 127.41C38.7112 126.379 36.9983 125.568 35.3417 124.633C30.5743 121.944 28.8019 118.247 30.1558 113.768C31.1429 110.503 33.141 108.342 36.2457 107.746C39.1263 107.193 41.3857 108.662 43.085 111.067C44.1844 112.624 45.0182 114.427 45.8659 116.182C46.6017 117.706 47.6912 118.182 48.8587 117.186C50.7199 115.599 52.5615 113.905 54.1086 111.959C56.4339 109.035 58.3809 105.741 60.7035 102.814C63.3307 99.5035 64.9831 99.5443 68.0408 102.277C70.6522 104.61 73.3523 106.821 76.2572 109.31C77.2309 110.262 77.9844 110.963 78.6857 111.723C81.5107 114.785 81.6088 119.046 77.3504 120.73C75.7709 121.354 74.6474 123.399 73.1829 124.93C71.19 129.62 72.1671 133.138 75.8316 135.078C79.7535 137.154 82.685 136.114 84.6697 131.488C85.8474 128.743 86.4831 125.711 87.5299 122.812C88.3643 123.306 89.0762 123.736 89.6912 124.296C94.6036 128.774 99.471 133.312 104.428 137.728C105.118 138.343 106.221 138.388 107.132 138.697Z" fill="#EF3321"/>
<path d="M53.6137 22.8677C54.9353 26.6836 55.9584 30.5922 57.25 34.3883C58.5444 38.1924 59.9176 41.9942 61.6148 45.5884C62.8631 48.2321 64.4435 48.4802 66.7282 46.9099C68.6037 45.6209 70.3294 44.0657 72.185 42.7378C74.6704 40.9593 77.0754 40.9455 78.5217 42.5654C80.6497 44.9488 81.7719 50.4445 80.1952 52.3697C79.2997 53.4632 77.7423 54.1056 76.3794 54.4578C74.5673 54.9261 72.6546 54.9178 70.7845 55.1065C66.9639 55.4922 65.2501 58.1175 66.3856 62.2262C67.1261 64.9059 68.1482 67.4989 69.1582 70.0756C70.6159 73.794 72.177 77.4625 73.8473 81.258C73.649 82.0937 73.451 83.2546 72.9221 83.4868C67.6806 85.7879 62.4794 88.3032 57.0771 90.024C51.5549 91.783 49.1223 89.3266 49.3857 82.9979C49.5153 79.8845 49.2964 77.1704 46.2234 75.8372C43.6236 74.7092 40.3961 75.4706 38.3028 77.8384C36.1277 80.2988 36.0342 83.3686 37.8085 86.2206C39.0013 88.1377 40.104 90.1771 40.9184 92.3159C41.7512 94.5034 40.8653 96.2622 38.9159 97.1594C34.0784 99.386 29.2562 101.669 24.3419 103.67C20.4753 105.244 19.1779 104.544 17.8061 100.207C16.0731 94.7266 14.5083 89.1748 13.0499 83.5964C12.1579 80.1848 13.9659 77.4307 17.1633 77.005C18.2924 76.8547 19.455 76.9587 20.5995 77.0159C24.5944 77.2156 26.5367 75.4135 26.9733 71.0586C27.2866 67.9332 25.6566 64.6159 23.046 63.2045C20.5755 61.8688 18.4425 62.5077 16.6225 64.7077C16.5132 64.8398 16.3503 64.9169 16.2395 65.0478C11.6195 70.5054 8.19628 68.5106 6.04852 62.6767C4.01095 57.1421 2.55052 51.3467 0.80988 45.676C0.203573 43.7008 1.62987 43.5775 2.63905 43.2179C7.00092 41.6636 11.4074 40.2595 15.7472 38.635C17.2786 38.0617 18.6929 37.0675 20.1131 36.1724C22.0547 34.9486 22.4144 33.2655 21.1555 31.1643C19.8862 29.0454 18.5352 26.9706 17.4378 24.7442C14.9369 19.6705 16.4396 16.1562 21.5314 14.8609C27.5562 13.3283 30.5275 15.8928 30.644 22.7062C30.6734 24.4312 30.6569 26.1678 30.8377 27.8761C31.0385 29.7722 32.1058 30.9886 33.8608 30.5923C36.8102 29.9264 39.7882 29.2203 42.6055 28.0791C46.2903 26.5865 49.8305 24.6543 53.6137 22.8677Z" fill="#3A7DC9"/>
<path d="M73.3159 124.796C74.6474 123.399 75.7709 121.354 77.3504 120.73C81.6088 119.046 81.5107 114.785 78.6857 111.723C77.9844 110.963 77.2309 110.262 76.4117 109.379C76.9709 109.14 77.6268 109.096 78.2675 108.962C80.9209 108.409 81.89 106.995 81.0821 104.142C80.1542 100.864 78.8908 97.7017 77.7298 94.5087C76.9966 92.4921 76.1338 90.5328 75.4206 88.5082C74.6013 86.1822 74.8671 84.0504 76.7091 82.1658C81.1837 80.0467 85.5735 78.0668 89.9688 76.1022C90.4219 75.8997 90.9056 75.7785 91.379 75.6355C96.7153 74.0238 97.6389 74.7547 97.9731 80.8481C97.9781 80.9389 97.9802 81.0298 97.9858 81.1205C98.2045 84.6618 98.6326 88.2689 101.957 89.866C105.478 91.5577 108.732 89.9302 111.629 87.7044C114.24 85.698 114.929 82.7679 113.493 79.5361C112.452 77.1955 110.982 75.0829 109.64 72.9161C107.731 69.8301 107.853 69.0533 110.968 67.8481C115.746 65.9994 120.575 64.3139 125.375 62.5376C125.991 62.3097 126.568 61.9534 127.342 61.6055C128.62 63.1658 130.051 64.6177 130.755 66.4192C132.638 71.2361 134.332 76.1564 135.867 81.1248C137.152 85.2855 135.512 87.5654 131.499 87.6179C130.686 87.6285 129.872 87.4794 129.057 87.4182C126.044 87.1918 123.026 89.4072 122.194 92.4501C121.264 95.8487 122.529 99.5592 125.266 101.464C127.78 103.214 130.667 102.743 133.084 100.186C133.321 99.9352 133.545 99.6699 133.776 99.4126C137.868 94.8608 140.143 95.1426 142.39 101.192C144.814 107.715 146.67 114.497 148.904 121.577C145.653 122.599 142.658 123.411 139.742 124.49C136.345 125.747 132.87 126.917 129.699 128.712C126.249 130.667 126.164 132.125 128.574 135.384C130.933 138.575 132.346 141.982 131.016 146.17C129.914 149.64 127.022 151.917 124.142 151.61C120.696 151.242 118.085 148.759 117.587 145.027C117.315 142.983 117.495 140.868 117.414 138.788C117.3 135.859 116.512 134.911 113.895 135.356C111.744 135.722 109.678 136.697 107.288 137.379C101.173 131.988 95.3661 126.59 89.4755 121.307C88.9792 120.862 87.9236 121.185 86.9621 121.113C84.3758 118.06 82.7829 118.072 80.2896 121.241C78.4297 123.606 76.3273 125.269 73.3159 124.796Z" fill="#F8E506"/>
</svg>
