<svg width="25" height="28" viewBox="0 0 25 28" fill="none" xmlns="http://www.w3.org/2000/svg">
<path d="M2.70215 27.4344C2.70215 27.4344 0.697571 27.4344 0.697571 25.1974C0.697571 22.9604 2.70215 16.2493 12.7251 16.2493C22.748 16.2493 24.7526 22.9604 24.7526 25.1974C24.7526 27.4344 22.748 27.4344 22.748 27.4344H2.70215ZM12.7251 14.0123C14.32 14.0123 15.8496 13.3053 16.9774 12.0467C18.1052 10.7881 18.7388 9.08113 18.7388 7.30125C18.7388 5.52136 18.1052 3.81437 16.9774 2.55581C15.8496 1.29724 14.32 0.590179 12.7251 0.590179C11.1301 0.590179 9.6005 1.29724 8.4727 2.55581C7.34491 3.81437 6.71132 5.52136 6.71132 7.30125C6.71132 9.08113 7.34491 10.7881 8.4727 12.0467C9.6005 13.3053 11.1301 14.0123 12.7251 14.0123Z" fill="black"/>
</svg>
